<?xml version="1.0" encoding="UTF-8" standalone="no"?>
<!-- Created with Inkscape (http://www.inkscape.org/) -->

<svg
   version="1.1"
   id="svg2"
   xml:space="preserve"
   width="2800.2667"
   height="2800.2667"
   viewBox="0 0 2800.2667 2800.2667"
   sodipodi:docname="vecteezy_return-icon-logo-vector-illustration-order-delivery-and_10577219.eps"
   xmlns:inkscape="http://www.inkscape.org/namespaces/inkscape"
   xmlns:sodipodi="http://sodipodi.sourceforge.net/DTD/sodipodi-0.dtd"
   xmlns="http://www.w3.org/2000/svg"
   xmlns:svg="http://www.w3.org/2000/svg"><defs
     id="defs6" /><sodipodi:namedview
     id="namedview4"
     pagecolor="#ffffff"
     bordercolor="#666666"
     borderopacity="1.0"
     inkscape:pageshadow="2"
     inkscape:pageopacity="0.0"
     inkscape:pagecheckerboard="0" /><g
     id="g8"
     inkscape:groupmode="layer"
     inkscape:label="ink_ext_XXXXXX"
     transform="matrix(1.3333333,0,0,-1.3333333,0,2800.2667)"><g
       id="g10"
       transform="scale(0.1)"><path
         d="M 13377.1,7157.2 H 7362.25 v 4804.1 h 1967.48 v -879.9 c 0,-84 68.07,-152 152.04,-152 h 1775.83 c 83.9,0 152,68 152,152 v 879.9 h 1967.5 z M 8118.56,13371.1 H 9619.68 L 9361.17,12265.4 H 7474.69 Z m 2688.84,0 258.5,-1105.7 H 9673.46 l 258.5,1105.7 z M 9633.82,11961.3 h 1471.68 v -727.9 H 9633.82 Z m 3630.78,304.1 h -1886.4 l -258.5,1105.7 h 1501.1 z m 416.6,-5260.2 v 5108.2 c 0,0 0,0.1 0,0.2 -0.1,9 -1.1,17.9 -2.7,26.8 -0.5,2.3 -0.9,4.6 -1.4,6.9 -2,8.4 -4.3,16.7 -7.7,24.7 -0.4,1 -1,1.9 -1.4,2.9 -2.3,5 -4.7,10.1 -7.5,15 l -821,1409.7 c -27.2,46.8 -77.2,75.6 -131.3,75.6 H 10928 9811.37 8031.16 c -54.12,0 -104.16,-28.8 -131.39,-75.6 l -820.96,-1409.7 c -2.83,-4.9 -5.2,-9.9 -7.45,-15 -0.44,-1 -1.02,-1.9 -1.44,-2.9 -3.36,-8 -5.75,-16.3 -7.66,-24.7 -0.53,-2.3 -0.96,-4.6 -1.39,-6.9 -1.6,-8.9 -2.69,-17.8 -2.7,-26.8 0,-0.1 -0.02,-0.2 -0.02,-0.2 V 7005.2 c 0,-84 68.07,-152.1 152.05,-152.1 h 6318.9 c 84,0 152.1,68.1 152.1,152.1"
         style="fill:#393E46;fill-opacity:1;fill-rule:nonzero;stroke:none"
         id="path36" /><path
         d="M 10521.6,4476.2 V 4862 c 2763.9,80.7 4987.5,2354.2 4987.5,5137.3 0,2834 -2305.6,5139.5 -5139.5,5139.5 -1354.03,0 -2632.01,-522.1 -3598.51,-1470.1 -965.15,-946.6 -1511.94,-2211.6 -1539.66,-3561.7 -0.01,-0.6 0.12,-1.1 0.12,-1.6 0,-0.5 -0.15,-1 -0.15,-1.5 0,-4.7 0.95,-9 1.35,-13.5 0.48,-5.3 0.59,-10.6 1.58,-15.7 0.95,-4.8 2.66,-9.4 4.06,-14.1 1.45,-4.8 2.59,-9.8 4.51,-14.5 1.85,-4.5 4.39,-8.6 6.66,-12.9 2.32,-4.4 4.35,-8.9 7.07,-13 2.64,-4 5.88,-7.5 8.89,-11.2 3.11,-3.9 5.97,-7.9 9.44,-11.5 3.3,-3.4 7.11,-6.1 10.71,-9.2 3.83,-3.2 7.44,-6.7 11.59,-9.6 3.91,-2.7 8.25,-4.7 12.41,-7 4.39,-2.5 8.58,-5.2 13.23,-7.2 4.51,-2 9.36,-3.2 14.09,-4.7 4.75,-1.5 9.33,-3.4 14.29,-4.4 5.04,-1.1 10.35,-1.3 15.56,-1.9 4.52,-0.5 8.85,-1.6 13.49,-1.7 0.55,0 1.07,0.2 1.63,0.2 0.51,0 0.98,-0.2 1.48,-0.2 h 438.78 l -776.05,-958 -776.37,958 h 423.39 c 5.31,0 10.33,1.1 15.51,1.6 4.51,0.4 9.13,0.5 13.53,1.3 6.1,1.2 11.8,3.3 17.62,5.2 3.61,1.2 7.36,1.9 10.85,3.3 5.91,2.5 11.32,5.7 16.82,8.8 3.01,1.7 6.23,3 9.11,4.9 5.2,3.5 9.82,7.6 14.54,11.6 2.71,2.3 5.67,4.3 8.21,6.7 4.2,4.2 7.75,8.9 11.46,13.4 2.45,3 5.19,5.8 7.4,9 3.14,4.5 5.54,9.5 8.18,14.4 2.05,3.8 4.41,7.4 6.14,11.4 2.13,4.8 3.44,10 5.04,15.2 1.39,4.4 3.13,8.6 4.11,13.2 1.11,5.2 1.33,10.6 1.9,15.9 0.49,4.5 1.52,8.8 1.6,13.4 54.23,2990.8 2532.46,5423.9 5524.39,5423.9 3046.9,0 5525.7,-2478.8 5525.7,-5525.7 0,-2995.8 -2396.7,-5442.4 -5373.7,-5523.1 z m -152,11352.9 c -1538.37,0 -2989.63,-593.9 -4086.47,-1672.3 -1059.89,-1042.1 -1673.35,-2422.4 -1737.3,-3900.9 h -594.94 c -58.62,0 -112.02,-33.7 -137.24,-86.6 -25.24,-52.9 -17.8,-115.6 19.11,-161.2 L 4928.07,8656.5 c 28.86,-35.7 72.28,-56.3 118.14,-56.3 45.86,0 89.27,20.7 118.13,56.3 l 1094.85,1351.7 c 36.9,45.5 44.33,108.2 19.1,161.1 -25.23,52.9 -78.63,86.6 -137.24,86.6 h -599.59 c 134.37,2538.8 2268.13,4578.8 4828.14,4578.8 2666.2,0 4835.4,-2169.1 4835.4,-4835.4 0,-2666.2 -2169.2,-4835.4 -4835.4,-4835.4 -84,0 -152.1,-68.1 -152.1,-152 v -689.8 c 0,-84 68.1,-152.1 152.1,-152.1 3214.5,0 5829.8,2615 5829.8,5829.3 0,3214.6 -2615.3,5829.8 -5829.8,5829.8"
         style="fill:#393E46;fill-opacity:1;fill-rule:nonzero;stroke:none"
         id="path38" /></g></g></svg>
