<svg class="svg-icon" style="width: 1em;height: 1em;vertical-align: middle;fill: 
#000000;overflow: hidden;" viewBox="0 0 1024 1024" version="1.1" 
xmlns="http://www.w3.org/2000/svg">
    <path d="M789.333333 917.333333m-106.666666 0a106.666667 106.666667 0 1 0 213.333333 0 106.666667 106.666667 0 1 0-213.333333 0Z"  />
    <path d="M362.666667 917.333333m-106.666667 0a106.666667 106.666667 0 1 0 213.333333 0 106.666667 106.666667 0 1 0-213.333333 0Z"  />
    <path d="M874.666667 768H382.250667a149.717333 149.717333 0 0 1-146.432-120.021333L131.84 128H21.333333a21.333333 21.333333 0 0 1 0-42.666667h128a21.333333 21.333333 0 0 1 20.906667 17.152L277.674667 639.573333A106.922667 106.922667 0 0 0 382.250667 725.333333H874.666667a21.333333 21.333333 0 0 1 0 42.666667z"  />
    <path d="M937.472 481.237333a21.162667 21.162667 0 0 0-20.693333-0.554666A273.28 273.28 0 0 1 789.333333 512c-152.917333 0-277.76-115.626667-277.589333-272.042667L512 235.306667A21.333333 21.333333 0 0 0 490.026667 213.333333h-298.666667a21.205333 21.205333 0 0 0-15.957333 7.978667 20.992 20.992 0 0 0-4.352 17.28l64 341.333333c1.877333 10.112 10.666667 17.408 20.949333 17.408h585.984a106.752 106.752 0 0 0 105.813333-93.44c0.128-1.066667 0.128-3.754667 0.128-4.821333a21.333333 21.333333 0 0 0-10.453333-17.834667z"  />
    <path d="M789.333333 0C659.925333 0 554.666667 105.258667 554.666667 234.666667s105.258667 234.666667 234.666666 234.666666S1024 364.074667 1024 234.666667 918.741333 0 789.333333 0z m100.437334 304.896a21.333333 21.333333 0 0 1-30.208 30.208L789.333333 264.832l-70.229333 70.229333a21.333333 21.333333 0 1 1-30.208-30.122666L759.168 234.666667l-70.229333-70.229334a21.333333 21.333333 0 0 1 30.165333-30.165333L789.333333 204.501333l70.229334-70.229333a21.333333 21.333333 0 0 1 30.165333 30.165333L819.498667 234.666667l70.272 70.229333z"  />
    </svg>