<?xml version="1.0" encoding="UTF-8" standalone="no"?>
<!-- Created with Inkscape (http://www.inkscape.org/) -->

<svg
   version="1.1"
   id="svg2"
   xml:space="preserve"
   width="4409.52"
   height="2022.0533"
   viewBox="0 0 4409.52 2022.0533"
   sodipodi:docname="vecteezy_fast-delivery-icon_.eps"
   xmlns:inkscape="http://www.inkscape.org/namespaces/inkscape"
   xmlns:sodipodi="http://sodipodi.sourceforge.net/DTD/sodipodi-0.dtd"
   xmlns="http://www.w3.org/2000/svg"
   xmlns:svg="http://www.w3.org/2000/svg"><defs
     id="defs6" /><sodipodi:namedview
     id="namedview4"
     bordercolor="#666666"
     borderopacity="1.0"
     inkscape:pageshadow="2"
     inkscape:pageopacity="0.0"
     inkscape:pagecheckerboard="0" /><g
     id="g8"
     inkscape:groupmode="layer"
     inkscape:label="ink_ext_XXXXXX"
     transform="matrix(1.3333333,0,0,-1.3333333,0,1943.0533)"><g
       id="g10"
       transform="scale(0.1)"><path
         d="M 24567.6,12178.6 23024.5,3025.5 h -6721.2 c -202,1237 -1272.5,2182.1 -2566.6,2182.1 -1294.1,0 -2364.7,-945.1 -2566.6,-2182.1 H 7983.85 l 1620.85,9614.4 c 112.57,667.8 690.8,1156.7 1368.1,1156.7 h 12226.7 c 858.4,0 1510.8,-771.6 1368.1,-1618 z M 13736.7,625.801 c -971,0 -1774.7,700.799 -1942.3,1623.399 -20.9,115.4 -35.7,233.1 -35.7,354.6 0,1092.4 885.6,1977.96 1978,1977.96 1092.4,0 1978,-885.56 1978,-1977.96 0,-121.5 -14.8,-239.2 -35.8,-354.6 C 15511.4,1326.6 14707.7,625.801 13736.7,625.801 Z M 24851.8,13806.2 c -412,487.3 -1014.2,766.7 -1652.3,766.7 H 10972.8 c -1060.08,0 -1957.39,-758.7 -2133.6,-1804 L 7218.36,3154.6 7065.75,2249.2 h 918.1 3175.95 C 11333.1,979.301 12419.2,0 13736.7,0 c 1317.5,0 2403.5,979.301 2576.9,2249.2 h 6710.9 656.4 l 109.1,647.3 1543.1,9153 c 106.1,629.2 -69.4,1269.5 -481.3,1756.7"
         style="fill:#393E46;fill-opacity:1;fill-rule:nonzero;stroke:none"
         id="path12" /><path
         d="M 32274.1,6087.94 31757.9,3025.5 h -942.1 c -8.5,51.7 -17.4,103.2 -28.8,153.8 -218.1,1085.3 -1132.3,1920.64 -2257.3,2012.67 -92.2,9.87 -185.7,15.63 -280.6,15.63 -1294.1,0 -2364.6,-945.1 -2566.6,-2182.1 h -523.1 l 1290.5,7655.2 c 86.1,510.4 528,884.1 1045.5,884.1 h 1169.8 c 547.8,0 1053.4,-294 1324.4,-770 l 2106.2,-3699.53 c 173.7,-305.21 236.7,-661.04 178.3,-1007.33 z m -4025,-5462.139 c -970.9,0 -1774.7,700.799 -1942.2,1623.399 -21,115.4 -35.7,233.1 -35.7,354.6 0,1092.4 885.5,1977.96 1977.9,1977.96 1092.4,0 1978,-885.56 1978,-1977.96 0,-121.5 -14.8,-239.2 -35.7,-354.6 -167.6,-922.6 -971.3,-1623.399 -1942.3,-1623.399 z m 4521.3,6853.519 -2106.1,3699.48 c -408.2,716.9 -1174.2,1162.3 -1999.1,1162.3 h -1169.8 c -899.8,0 -1661.4,-644 -1811,-1531.3 l -1290.5,-7655.2 -152.6,-905.4 h 918.1 512.8 C 25845.6,979.301 26931.7,0 28249.1,0 29566.6,0 30652.7,979.301 30826,2249.2 h 931.9 656.3 l 109.1,647.3 516.3,3062.4 c 87.9,521.14 -7.7,1061.1 -269.2,1520.42"
         style="fill:#393E46;fill-opacity:1;fill-rule:nonzero;stroke:none"
         id="path14" /><path
         d="M 12026.1,7966.07 H 11742 l 161.1,814.19 h 246 c 241.7,0 367,-116.75 367,-313.85 0,-284.1 -176.1,-500.34 -490,-500.34 z m 169.7,1149.08 h -644.6 l -296.8,-1484.17 h 759 c 544.9,0 926.6,335.09 926.6,860.82 0,383.79 -282,623.35 -744.2,623.35"
         style="fill:#393E46;fill-opacity:1;fill-rule:nonzero;stroke:none"
         id="path16" /><path
         d="m 14400.3,8790.88 65.8,324.27 h -1162 l -296.8,-1484.17 h 1189.5 l 67.8,324.47 h -778.2 l 53.1,271.4 h 661.6 l 61.4,313.66 h -659.3 l 48.7,250.37 h 748.4"
         style="fill:#393E46;fill-opacity:1;fill-rule:nonzero;stroke:none"
         id="path18" /><path
         d="m 15150.1,9115.15 h -419.8 l -296.8,-1484.17 h 1128 l 67.9,332.81 h -708.3 l 229,1151.36"
         style="fill:#393E46;fill-opacity:1;fill-rule:nonzero;stroke:none"
         id="path20" /><path
         d="m 15728.1,7630.98 h 419.8 l 296.8,1484.17 h -419.8 l -296.8,-1484.17"
         style="fill:#393E46;fill-opacity:1;fill-rule:nonzero;stroke:none"
         id="path22" /><path
         d="m 17810.8,9115.15 -606.5,-964.68 -211.9,964.68 h -430.6 L 16899,7630.98 h 413.6 l 930.7,1484.17 h -432.5"
         style="fill:#393E46;fill-opacity:1;fill-rule:nonzero;stroke:none"
         id="path24" /><path
         d="m 19430.1,8790.88 65.8,324.27 h -1162 l -296.8,-1484.17 h 1189.5 l 67.8,324.47 h -778.2 l 53.1,271.4 h 661.6 l 61.4,313.66 H 18633 l 48.7,250.37 h 748.4"
         style="fill:#393E46;fill-opacity:1;fill-rule:nonzero;stroke:none"
         id="path26" /><path
         d="m 20275.4,8349.85 h -250.2 l 89.1,434.58 h 220.4 c 144.3,0 233.3,-57.23 233.3,-182.32 0,-163.38 -108.2,-252.26 -292.6,-252.26 z m 118.6,765.3 h -633.9 l -296.8,-1484.17 h 419.8 l 78.4,394.4 h 212.1 l 220.4,-394.4 h 439 l -252.3,445.19 c 258.7,89.09 411.3,292.63 411.3,566.12 0,296.98 -218.3,472.86 -598,472.86"
         style="fill:#393E46;fill-opacity:1;fill-rule:nonzero;stroke:none"
         id="path28" /><path
         d="m 21771.5,8523.65 -233.1,591.5 h -422.1 l 377.6,-947.81 -106.2,-536.36 h 419.8 l 103.9,525.74 761.3,958.43 h -426.2 l -475,-591.5"
         style="fill:#393E46;fill-opacity:1;fill-rule:nonzero;stroke:none"
         id="path30" /><path
         d="m 14393.1,10930.6 h 1094.7 l 110.1,543.8 h -1098.1 l 110.1,547.1 h 1243.9 l 110.1,543.8 H 14016.5 L 13519,10077.8 h 703.5 l 170.6,852.8"
         style="fill:#393E46;fill-opacity:1;fill-rule:nonzero;stroke:none"
         id="path32" /><path
         d="m 17222.7,11886.6 167.2,-806.7 h -643.3 z m -1073.1,-1808.8 287.7,483.2 h 1059.1 l 99.5,-483.2 h 700.1 l -600.6,2487.5 h -692.9 l -1595.6,-2487.5 h 742.7"
         style="fill:#393E46;fill-opacity:1;fill-rule:nonzero;stroke:none"
         id="path34" /><path
         d="m 20624.7,10912.8 c 0,767.6 -1211.6,572.2 -1208,913.3 0,135.2 156.1,241.7 447.6,241.7 245.3,0 486.9,-64.1 682.3,-188.4 l 255.9,522.3 c -223.9,138.7 -543.8,213.4 -895.5,213.4 -735.6,0 -1194,-351.9 -1194,-888.5 0,-781.8 1208.2,-597 1208.2,-930.9 0,-135.2 -156.4,-220.4 -426.5,-220.4 -284.2,0 -575.7,85.2 -828,245.2 l -277.1,-525.9 c 223.9,-152.8 611.2,-266.5 1037.7,-266.5 728.5,0 1197.4,351.8 1197.4,884.7"
         style="fill:#393E46;fill-opacity:1;fill-rule:nonzero;stroke:none"
         id="path36" /><path
         d="m 20913.5,12007.3 h 764 l -387.4,-1929.5 h 703.7 l 387.2,1929.5 h 760.6 l 113.7,558 h -2228.1 l -113.7,-558"
         style="fill:#393E46;fill-opacity:1;fill-rule:nonzero;stroke:none"
         id="path38" /><path
         d="M 29777.7,7373.75 H 27622 l 301.1,1785.82 c 28.1,166.76 172.4,288.81 341.5,288.81 h 382.2 c 178.9,0 344.1,-96.01 432.6,-251.54 l 688.1,-1208.6 c 56.8,-99.72 77.4,-215.97 58.3,-329.12 z m -23.6,2207.16 c -226.1,397.1 -650.4,643.79 -1107.3,643.79 h -382.2 c -550,0 -1015.6,-393.71 -1107,-936.11 l -301.1,-1785.79 -152.6,-905.35 h 918.1 2155.7 656.4 l 109.1,647.23 48.1,285.4 c 48.7,288.7 -4.3,587.84 -149.2,842.26 l -688,1208.57"
         style="fill:#393E46;fill-opacity:1;fill-rule:nonzero;stroke:none"
         id="path40" /><path
         d="M 7399.81,6613.37 H 2820.44 l -778.21,-776.29 h 5226.71 l 130.87,776.29"
         style="fill:#393E46;fill-opacity:1;fill-rule:nonzero;stroke:none"
         id="path42" /><path
         d="M 7636.79,8019.13 H 5394.14 l -778.24,-776.3 h 2890.02 l 130.87,776.3"
         style="fill:#393E46;fill-opacity:1;fill-rule:nonzero;stroke:none"
         id="path44" /><path
         d="M 3351.91,5207.6 2573.7,4431.3 h 4458.24 l 130.87,776.3 h -3810.9"
         style="fill:#393E46;fill-opacity:1;fill-rule:nonzero;stroke:none"
         id="path46" /><path
         d="m 0,3025.5 h 6794.94 l 130.87,776.3 H 778.211 L 0,3025.5"
         style="fill:#393E46;fill-opacity:1;fill-rule:nonzero;stroke:none"
         id="path48" /><path
         d="m 13736.7,1882.5 c -398.4,0 -721.3,322.9 -721.3,721.3 0,398.3 322.9,721.3 721.3,721.3 398.3,0 721.3,-323 721.3,-721.3 0,-398.4 -323,-721.3 -721.3,-721.3 z m 0,2699.26 c -1092.4,0 -1978,-885.56 -1978,-1977.96 0,-121.5 14.8,-239.2 35.7,-354.6 167.6,-922.6 971.3,-1623.399 1942.3,-1623.399 971,0 1774.7,700.799 1942.2,1623.399 21,115.4 35.8,233.1 35.8,354.6 0,1092.4 -885.6,1977.96 -1978,1977.96"
         style="fill:#ffffff;fill-opacity:1;fill-rule:nonzero;stroke:none"
         id="path50" /><path
         d="m 13736.7,3325.1 c -398.4,0 -721.3,-323 -721.3,-721.3 0,-398.4 322.9,-721.3 721.3,-721.3 398.3,0 721.3,322.9 721.3,721.3 0,398.3 -323,721.3 -721.3,721.3"
         style="fill:#393E46;fill-opacity:1;fill-rule:nonzero;stroke:none"
         id="path52" /><path
         d="m 28249.1,1882.5 c -398.3,0 -721.3,322.9 -721.3,721.3 0,398.3 323,721.3 721.3,721.3 398.4,0 721.3,-323 721.3,-721.3 0,-398.4 -322.9,-721.3 -721.3,-721.3 z m 0,2699.26 c -1092.4,0 -1977.9,-885.56 -1977.9,-1977.96 0,-121.5 14.7,-239.2 35.7,-354.6 167.5,-922.6 971.3,-1623.399 1942.2,-1623.399 971,0 1774.7,700.799 1942.3,1623.399 20.9,115.4 35.7,233.1 35.7,354.6 0,1092.4 -885.6,1977.96 -1978,1977.96"
         style="fill:#ffffff;fill-opacity:1;fill-rule:nonzero;stroke:none"
         id="path54" /><path
         d="m 28249.1,3325.1 c -398.3,0 -721.3,-323 -721.3,-721.3 0,-398.4 323,-721.3 721.3,-721.3 398.4,0 721.3,322.9 721.3,721.3 0,398.3 -322.9,721.3 -721.3,721.3"
         style="fill:#393E46;fill-opacity:1;fill-rule:nonzero;stroke:none"
         id="path56" /></g></g></svg>
