<?xml version="1.0" encoding="UTF-8" standalone="no"?>
<!-- Created with Inkscape (http://www.inkscape.org/) -->

<svg
   version="1.1"
   id="svg2"
   xml:space="preserve"
   width="2666.6667"
   height="2666.6667"
   viewBox="0 0 2666.6667 2666.6667"
   sodipodi:docname="vecteezy_quality-badge-icon-design-medal-and-ribbon-vector_3678261.eps"
   xmlns:inkscape="http://www.inkscape.org/namespaces/inkscape"
   xmlns:sodipodi="http://sodipodi.sourceforge.net/DTD/sodipodi-0.dtd"
   xmlns="http://www.w3.org/2000/svg"
   xmlns:svg="http://www.w3.org/2000/svg"><defs
     id="defs6" /><sodipodi:namedview
     id="namedview4"
     bordercolor="#666666"
     borderopacity="1.0"
     inkscape:pageshadow="2"
     inkscape:pageopacity="0.0"
     inkscape:pagecheckerboard="0" /><g
     id="g8"
     inkscape:groupmode="layer"
     inkscape:label="ink_ext_XXXXXX"
     transform="matrix(1.3333333,0,0,-1.3333333,0,2666.6667)"><g
       id="g10"
       transform="scale(0.1)"><path
         d="M 6446.98,8495.8 4126.39,4476.4 6341.15,4610.5 7169.24,2719.7 9610.73,6948.4 c -233.82,150.4 -461.64,405.8 -698.09,457.8 -388.54,85.6 -962.78,-216.1 -1325.28,-53.6 -319.16,143.1 -390.8,732.8 -666.14,946.9 -121.43,94.4 -293.86,148.1 -474.24,196.3 v 0"
         style="fill:#393E46;fill-opacity:1;fill-rule:evenodd;stroke:none"
         id="path14" /><path
         d="m 13521.4,8550.6 c -101.1,-29.1 -192.7,-66.2 -262.8,-121.9 -309.5,-245.9 -427.3,-877 -781.7,-1054.8 -311.9,-156.5 -824.2,156.9 -1165.3,78.5 -299.5,-68.8 -597.1,-393.9 -900.5,-541.7 l 2419.7,-4191 828.1,1890.8 2214.7,-134.1 -2352.2,4074.2"
         style="fill:#393E46;fill-opacity:1;fill-rule:evenodd;stroke:none"
         id="path16" /><path
         d="m 12242.2,7738.6 c -295.2,-148 -779.7,148.4 -1102.3,74.3 -366.5,-84.2 -729.8,-573.9 -1106.1,-581.9 -331.37,-7 -637.9,467 -961.47,538.2 -367.54,81 -910.77,-204.4 -1253.68,-50.7 -301.88,135.4 -369.65,693.2 -630.11,895.7 -295.86,230 -911.35,205.4 -1152.95,490.5 -212.67,251 -28.27,782 -173.99,1075.7 -165.56,333.5 -731.49,574.6 -823.86,934.5 -81.35,316.9 318.72,716 316.56,1042.7 -2.46,371 -406.7,830.1 -331.59,1193.5 66.11,320 602.61,508.1 744.45,803.1 161.14,335 -1.4,921.1 226.35,1216.1 200.48,259.7 767.11,199.7 1024.85,404.5 292.82,232.6 404.24,829.7 739.45,997.8 295.14,148.1 779.73,-148.4 1102.33,-74.2 366.46,84.2 729.75,573.9 1106.11,581.9 331.35,7 637.85,-467 961.45,-538.3 367.5,-80.9 910.7,204.5 1253.7,50.7 301.8,-135.3 369.6,-693.1 630.1,-895.6 295.8,-230.1 911.3,-205.5 1152.9,-490.5 212.7,-251 28.3,-782 174,-1075.7 165.6,-333.6 731.5,-574.7 823.9,-934.6 81.3,-316.8 -318.8,-716 -316.6,-1042.6 2.5,-371.1 406.7,-830.1 331.6,-1193.6 -66.1,-319.9 -602.6,-508.1 -744.5,-803 -161.1,-335.1 1.4,-921.1 -226.3,-1216.2 -200.5,-259.7 -767.1,-199.6 -1024.9,-404.4 -292.8,-232.7 -404.2,-829.7 -739.4,-997.9 v 0"
         style="fill:#393E46;fill-opacity:1;fill-rule:evenodd;stroke:none"
         id="path18" /><path
         d="m 14042.1,12255.6 c 0,-1072 -425.9,-2100.1 -1183.9,-2858.1 -758.1,-758.1 -1786.2,-1184 -2858.2,-1184 -1072.02,0 -2100.14,425.9 -2858.16,1184 -758.05,758 -1183.92,1786.1 -1183.92,2858.1 0,1072 425.87,2100.2 1183.92,2858.2 758.02,758 1786.14,1183.9 2858.16,1183.9 1072,0 2100.1,-425.9 2858.2,-1183.9 758,-758 1183.9,-1786.2 1183.9,-2858.2 v 0"
         style="fill:#ffffff;fill-opacity:1;fill-rule:evenodd;stroke:none"
         id="path20" /><path
         d="m 13532.6,12255.6 c 0,-936.9 -372.2,-1835.4 -1034.7,-2497.9 -662.5,-662.5 -1561,-1034.6 -2497.9,-1034.6 -936.91,0 -1835.41,372.1 -2497.89,1034.6 -662.49,662.5 -1034.68,1561 -1034.68,2497.9 0,936.9 372.19,1835.4 1034.68,2497.9 662.48,662.5 1560.98,1034.7 2497.89,1034.7 936.9,0 1835.4,-372.2 2497.9,-1034.7 662.5,-662.5 1034.7,-1561 1034.7,-2497.9 v 0"
         style="fill:#393E46;fill-opacity:1;fill-rule:evenodd;stroke:none"
         id="path22" /><path
         d="m 7666.67,12206.5 1129.82,-1129.8 589.48,-589.5 589.48,589.5 2357.85,2357.9 -589.4,589.5 -2357.93,-2358 -1129.83,1129.9 -589.47,-589.5"
         style="fill:#ffffff;fill-opacity:1;fill-rule:evenodd;stroke:none"
         id="path24" /></g></g></svg>
