<?xml version="1.0" encoding="UTF-8" standalone="no"?>
<!-- Created with Inkscape (http://www.inkscape.org/) -->

<svg
   version="1.1"
   id="svg2"
   xml:space="preserve"
   width="3333.3333"
   height="3333.3333"
   viewBox="0 0 3333.3333 3333.3333"
   sodipodi:docname="vecteezy_credit-card-payment-safe-secure-icon_10177796.eps"
   xmlns:inkscape="http://www.inkscape.org/namespaces/inkscape"
   xmlns:sodipodi="http://sodipodi.sourceforge.net/DTD/sodipodi-0.dtd"
   xmlns="http://www.w3.org/2000/svg"
   xmlns:svg="http://www.w3.org/2000/svg"><defs
     id="defs6" /><sodipodi:namedview
     id="namedview4"
     pagecolor="#ffffff"
     bordercolor="#666666"
     borderopacity="1.0"
     inkscape:pageshadow="2"
     inkscape:pageopacity="0.0"
     inkscape:pagecheckerboard="0" /><g
     id="g8"
     inkscape:groupmode="layer"
     inkscape:label="ink_ext_XXXXXX"
     transform="matrix(1.3333333,0,0,-1.3333333,0,3333.3333)"><g
       id="g10"
       transform="scale(0.1)"><path
         d="m 21535.4,21466.8 c -40.1,279.9 -189.8,532.3 -416.1,701.8 -226.3,169.5 -510.6,242.1 -790.4,202 -3250.2,-466.4 -13085.94,-1877.7 -16336.14,-2344.1 -279.84,-40.1 -532.26,-189.8 -701.75,-416.1 -169.48,-226.2 -242.14,-510.6 -201.98,-790.4 332.69,-2318.6 1124.26,-7835.3 1456.95,-10153.86 40.15,-279.83 189.83,-532.26 416.1,-701.75 226.27,-169.48 510.59,-242.14 790.43,-201.98 3250.2,466.36 13085.89,1877.67 16336.09,2343.99 279.9,40.2 532.3,189.9 701.8,416.1 169.5,226.3 242.1,510.6 202,790.5 -332.7,2318.6 -1124.3,7835.2 -1457,10153.8"
         style="fill:#808080;fill-opacity:1;fill-rule:evenodd;stroke:none"
         id="path12" /><path
         d="m 20632.1,19036.2 c 0,282.7 -112.3,553.9 -312.2,753.8 -199.9,199.9 -471,312.2 -753.7,312.2 -3283.5,0 -13219.94,0 -16503.43,0 -282.71,0 -553.83,-112.3 -753.74,-312.2 -199.9,-199.9 -312.2,-471.1 -312.2,-753.8 0,-2342.3 0,-7915.4 0,-10257.8 0,-282.7 112.3,-553.83 312.2,-753.73 199.91,-199.9 471.03,-312.21 753.74,-312.21 3283.49,0 13219.93,0 16503.43,0 282.7,0 553.8,112.31 753.7,312.21 199.9,199.9 312.2,471.03 312.2,753.73 0,2342.4 0,7915.5 0,10257.8"
         style="fill:#ffffff;fill-opacity:1;fill-rule:evenodd;stroke:none"
         id="path14" /><path
         d="m 20632.1,19036.2 c 0,282.7 -112.3,553.9 -312.2,753.8 -199.9,199.9 -471,312.2 -753.7,312.2 -3283.5,0 -13219.94,0 -16503.43,0 -282.71,0 -553.83,-112.3 -753.74,-312.2 -199.9,-199.9 -312.2,-471.1 -312.2,-753.8 0,-2342.3 0,-7915.4 0,-10257.8 0,-282.7 112.3,-553.83 312.2,-753.73 199.91,-199.9 471.03,-312.21 753.74,-312.21 3283.49,0 13219.93,0 16503.43,0 282.7,0 553.8,112.31 753.7,312.21 199.9,199.9 312.2,471.03 312.2,753.73 0,2342.4 0,7915.5 0,10257.8 z"
         style="fill:none;stroke:#000000;stroke-width:300;stroke-linecap:round;stroke-linejoin:round;stroke-miterlimit:10;stroke-dasharray:none;stroke-opacity:1"
         id="path16" /><path
         d="M 20632.1,17484.3 H 1996.83 V 14924.2 H 20632.1 v 2560.1"
         style="fill:#393E46;fill-opacity:1;fill-rule:evenodd;stroke:none"
         id="path18" /><path
         d="m 15496.2,11933.6 c 745.1,0 1350,-604.9 1350,-1350 0,-745.06 -604.9,-1349.97 -1350,-1349.97 -745.1,0 -1350,604.91 -1350,1349.97 0,745.1 604.9,1350 1350,1350 z m 2700,0 c 745.1,0 1350,-604.9 1350,-1350 0,-745.06 -604.9,-1349.97 -1350,-1349.97 -745.1,0 -1350,604.91 -1350,1349.97 0,745.1 604.9,1350 1350,1350"
         style="fill:#393E46;fill-opacity:1;fill-rule:evenodd;stroke:none"
         id="path20" /><path
         d="m 15496.2,11933.6 c 745.1,0 1350,-604.9 1350,-1350 0,-745.06 -604.9,-1349.97 -1350,-1349.97 -745.1,0 -1350,604.91 -1350,1349.97 0,745.1 604.9,1350 1350,1350 z m 2700,0 c 745.1,0 1350,-604.9 1350,-1350 0,-745.06 -604.9,-1349.97 -1350,-1349.97 -745.1,0 -1350,604.91 -1350,1349.97 0,745.1 604.9,1350 1350,1350 z"
         style="fill:none;stroke:#393E46;stroke-width:300;stroke-linecap:round;stroke-linejoin:round;stroke-miterlimit:10;stroke-dasharray:none;stroke-opacity:1"
         id="path22" /><path
         d="m 7433.08,12806.3 c 924.71,-1404.7 2304.18,-2136.8 3870.12,-1682.6 0,0 85.3,-2622.31 -213.7,-4088.45 C 10727.6,5260.93 9040.02,3018.15 7437.78,2619.8 l -4.7,-1.16 c -1603.56,395.02 -3294.19,2640.51 -3656.42,4416.61 -299.02,1466.14 -213.72,4088.45 -213.72,4088.45 1565.96,-454.2 2945.43,277.9 3870.14,1682.6"
         style="fill:#359b37;fill-opacity:1;fill-rule:evenodd;stroke:none"
         id="path24" /><path
         d="m 7433.08,12806.3 c 924.71,-1404.7 2304.18,-2136.8 3870.12,-1682.6 0,0 85.3,-2622.31 -213.7,-4088.45 C 10727.6,5260.93 9040.02,3018.15 7437.78,2619.8 l -4.7,-1.16 c -1603.56,395.02 -3294.19,2640.51 -3656.42,4416.61 -299.02,1466.14 -213.72,4088.45 -213.72,4088.45 1565.96,-454.2 2945.43,277.9 3870.14,1682.6 z"
         style="fill:none;stroke:#393E46;stroke-width:300;stroke-linecap:round;stroke-linejoin:round;stroke-miterlimit:10;stroke-dasharray:none;stroke-opacity:1"
         id="path26" /><path
         d="M 5297.6,6809.5 6700.56,5553 l 2868,4318.92"
         style="fill:none;stroke:#ffffff;stroke-width:1000;stroke-linecap:round;stroke-linejoin:round;stroke-miterlimit:10;stroke-dasharray:none;stroke-opacity:1"
         id="path28" /></g></g></svg>
